<?xml version="1.0" encoding="utf-8"?>
<!-- Uploaded to: SVG Repo, www.svgrepo.com, Generator: SVG Repo Mixer Tools -->
<svg width="800px" height="800px" viewBox="-9.39 0 325.052 325.052" xmlns="http://www.w3.org/2000/svg"><defs><style>.a{fill:#b5886a;}.b{fill:#ffffff;}.c{fill:#211715;}.d{fill:#f4b3b3;}.e{fill:#79c6e0;}</style></defs><path class="a" d="M120.635,161.049C112.8,163.1,107,165.018,107,165.018c-15.238,3.233-25.572-7.228-25.486-16.767a98.158,98.158,0,0,1,3.018-21.127c2.348-8.384,4.024-23.139,4.02-43.595-1-30.181,6.938-52.069,19.454-64.051,7.545-7.223,24.547-17.064,43.649-17.064a69.352,69.352,0,0,1,27.728,5.311l2.484,1.008,5.039,2.735c4.5,2.44,5.694,4.3,9.824,8.283,9.551,9.214,16.189,25.793,17.246,40.639.305,4.283,1.006,15.426.331,23.139.339,25.486,5.038,39.751,7.463,46.772a46.636,46.636,0,0,1,2.945,15.966c.086,9.539-11.769,21.892-25.4,17,0,0-31.986-6.713-48.176-7.108C142.322,155.947,130.014,158.594,120.635,161.049Z"/><path class="b" d="M104.038,79.947a7.2,7.2,0,0,0-5.764-1.686,6.8,6.8,0,0,0-4.891,3.251,9.612,9.612,0,0,0-1.007,3.869,28.817,28.817,0,0,0,2.938,15.278,18.322,18.322,0,0,0,4.737,6.217c1.6,1.278,3.866,2.724,6.74,2.006l.537-.137a49.4,49.4,0,0,0,9.553,19,46.69,46.69,0,0,0,15.568,12.593,62.45,62.45,0,0,1-.95,7.975c-.581,3.321-.4,6.289-5.016,7.956-.306.111-14.909,6.941-15.8,7.244l-.707.241c10.8,5.432,26.705,10.066,41.739,10.1,14.455.058,33.435-4.965,43.452-10.65l-.986-.405c-.467-.193-13.562-6.422-13.867-6.533-4.617-1.667-4.435-4.635-5.017-7.956a67.163,67.163,0,0,1-.98-8.87c11.624-5.7,20.888-21.621,22.536-26.094.3-.914.971-2.782,1.481-4.926,2.062-.3,4.808-.3,6.373-1.55a18.309,18.309,0,0,0,4.737-6.217,28.818,28.818,0,0,0,2.939-15.278,9.612,9.612,0,0,0-1.007-3.869,6.8,6.8,0,0,0-4.891-3.251,7.2,7.2,0,0,0-5.764,1.686c-8.081-2.465-17.829-15.39-20.945-21.234-2.18-4.087-4.551-12.948-6.429-19.2-8.934,11.635-20.287,19.877-34.387,23.905-3.353,1-.192-9.638.4-14.662-8.912,8.753-18.654,17.993-27.693,25.389Z"/><path class="c" d="M202.42,81.644a4.682,4.682,0,0,1,6.8.932c.817,1.308.831,3.107.864,4.6a25.505,25.505,0,0,1-.468,5.6,24.827,24.827,0,0,1-4.136,9.849,6.993,6.993,0,0,1-3.231,2.808,33.756,33.756,0,0,1-4.7.7,2.415,2.415,0,0,0-1.677,2.952,2.464,2.464,0,0,0,2.953,1.676,39.6,39.6,0,0,0,4.525-.65,9.384,9.384,0,0,0,4.444-2.817,25.848,25.848,0,0,0,5.451-9.545,30.6,30.6,0,0,0,1.605-11.469c-.2-3.642-1.188-7.04-4.435-9.08a9.686,9.686,0,0,0-11.387,1.054,2.42,2.42,0,0,0,0,3.394,2.45,2.45,0,0,0,3.394,0Z"/><path class="c" d="M196.587,103.868a24.261,24.261,0,0,1-1.169,6.147c-.213.71-.446,1.413-.682,2.116q-.115.346-.235.691c-.027.076-.063.15-.089.227-.151.441.182-.41.06-.137a51.725,51.725,0,0,1-3.188,5.926A59.2,59.2,0,0,1,178.53,133.9a23.593,23.593,0,0,1-9.462,4.893c-3.008.694-1.735,5.323,1.276,4.628,7.266-1.677,13.311-6.994,18.049-12.512a64.727,64.727,0,0,0,10.073-15.232,32.137,32.137,0,0,0,2.921-11.806c.106-3.09-4.694-3.086-4.8,0Z"/><path class="c" d="M105.735,78.25a9.723,9.723,0,0,0-10.428-1.559c-3.562,1.619-5,4.994-5.331,8.69-.681,7.471,1.623,15.974,6.709,21.6,2.769,3.064,6.55,5.114,10.744,4.211,3.018-.65,1.741-5.278-1.276-4.629-2.773.6-5.364-1.909-6.871-3.942A24.883,24.883,0,0,1,95.1,92.556a25.441,25.441,0,0,1-.426-5.384c.035-1.493.046-3.285.865-4.6a4.681,4.681,0,0,1,6.8-.932,2.463,2.463,0,0,0,3.394,0,2.42,2.42,0,0,0,0-3.394Z"/><path class="c" d="M102.926,97.994a68.667,68.667,0,0,0,5.627,21.072,51.277,51.277,0,0,0,18.361,20.939,34.325,34.325,0,0,0,13.455,5.253,2.477,2.477,0,0,0,2.952-1.676,2.417,2.417,0,0,0-1.676-2.952c-8.092-1.2-14.969-5.868-20.511-11.708a48.121,48.121,0,0,1-11.644-21.394c-.468-1.811-.854-3.642-1.173-5.485q-.195-1.128-.357-2.261c-.024-.165-.047-.33-.07-.495-.038-.275.031.243-.026-.193q-.071-.55-.138-1.1a2.475,2.475,0,0,0-2.4-2.4,2.414,2.414,0,0,0-2.4,2.4Z"/><path class="c" d="M171.205,40.719c1.139,3.832,2.214,7.684,3.455,11.484a44.916,44.916,0,0,0,3.751,8.973,65.486,65.486,0,0,0,12.455,15.318,25.979,25.979,0,0,0,9.219,5.767c2.951.937,4.214-3.695,1.276-4.628-5.312-1.687-9.99-7.021-13.538-11.381a63.267,63.267,0,0,1-4.953-6.974,36.074,36.074,0,0,1-3.276-7.43c-1.376-4.1-2.529-8.263-3.76-12.4-.878-2.954-5.512-1.7-4.629,1.276Z"/><path class="c" d="M171.629,37.86A67.8,67.8,0,0,1,153.2,54.649,60.031,60.031,0,0,1,142.1,59.9q-1.493.525-3.008.977a3.689,3.689,0,0,0-.766.224c-.164.111-.449-.109.226-.02a2.074,2.074,0,0,1,1.289.694c.265.308-.05.275.01-.121.048-.313.032.453.018.1-.006-.135-.016-.269-.02-.4a15.026,15.026,0,0,1,.114-2.044c.358-3.26,1.369-7.047,1.8-10.553.268-2.167-2.743-3.026-4.1-1.7-8.934,8.771-18.006,17.446-27.693,25.389a2.417,2.417,0,0,0,0,3.394,2.455,2.455,0,0,0,3.394,0c9.688-7.943,18.759-16.618,27.693-25.389l-4.1-1.7c-.09.732.044-.27-.027.193-.026.171-.053.341-.081.511-.066.409-.139.817-.214,1.225-.163.891-.338,1.779-.51,2.668-.373,1.931-.732,3.866-.956,5.821-.327,2.863.126,7.442,4.21,6.606a39.516,39.516,0,0,0,6.549-2.211,69.173,69.173,0,0,0,6.523-2.99,66.689,66.689,0,0,0,11.553-7.8,73.36,73.36,0,0,0,11.013-11.529,2.481,2.481,0,0,0,0-3.394,2.417,2.417,0,0,0-3.4,0Z"/><path class="c" d="M216.707,83.529a126.282,126.282,0,0,0,.068-16.369,111.53,111.53,0,0,0-1.311-14.076c-1.941-11.13-6.386-22.2-13.454-31.069a85.38,85.38,0,0,0-6.31-6.677,33.62,33.62,0,0,0-6.576-5.374c-2.657-1.59-5.073,2.558-2.423,4.145a27.25,27.25,0,0,1,5.346,4.362c1.817,1.831,3.72,3.591,5.41,5.542a54.181,54.181,0,0,1,8.123,13.125,71.293,71.293,0,0,1,4.961,15.639,92.308,92.308,0,0,1,1.384,13.345,130.134,130.134,0,0,1-.018,17.407,2.419,2.419,0,0,0,2.4,2.4,2.449,2.449,0,0,0,2.4-2.4Z"/><path class="c" d="M86.155,83.528c-.006,7.938-.234,15.884-.9,23.795a118.682,118.682,0,0,1-2.323,16.315c-.58,2.563-1.323,5.078-1.834,7.659-.706,3.565-1.23,7.174-1.6,10.79a34.28,34.28,0,0,0-.118,9.133,18.061,18.061,0,0,0,3.256,7.564,23.3,23.3,0,0,0,19.411,9.221c3.086-.05,3.095-4.85,0-4.8-5.784.092-11.561-2.055-15.178-6.727a14.227,14.227,0,0,1-2.838-6.4,19.643,19.643,0,0,1-.078-3.39c.067-1.6.2-3.2.365-4.794q.506-4.875,1.48-9.688c.5-2.456,1.209-4.853,1.762-7.3a124.516,124.516,0,0,0,2.349-15.953c.785-8.451,1.042-16.948,1.048-25.433,0-3.088-4.8-3.093-4.8,0Z"/><path class="c" d="M211.907,83.529a165.8,165.8,0,0,0,3.661,33.905q1.126,5.014,2.688,9.915c1.368,4.284,2.953,8.482,3.633,12.954.462,3.038.8,6.37-.1,9.352a18.044,18.044,0,0,1-5.361,8.018c-2.294,2.078,1.109,5.464,3.394,3.394a23.15,23.15,0,0,0,5.633-7.615,19.364,19.364,0,0,0,1.611-9.034c-.256-5.746-1.764-11.09-3.58-16.505a125.307,125.307,0,0,1-5.27-22.775,177.25,177.25,0,0,1-1.51-21.609c-.044-3.086-4.845-3.095-4.8,0Z"/><path class="c" d="M130.006,141.11a63.032,63.032,0,0,1-.783,6.351,36.794,36.794,0,0,1-.687,3.838c-.042.151-.307.847-.151.509a5.516,5.516,0,0,1-.4.708,2.292,2.292,0,0,1-.317.359,2.553,2.553,0,0,1-.72.544,22.525,22.525,0,0,1-2.111.974c-3.659,1.664-7.292,3.383-10.944,5.063-.943.433-1.887.867-2.833,1.294-.337.152-.675.3-1.013.452-.617.277.545-.2,0,0a2.461,2.461,0,0,0-1.676,2.952,2.42,2.42,0,0,0,2.952,1.676c1.449-.518,2.85-1.245,4.247-1.885q3.369-1.547,6.728-3.109,2.483-1.151,4.966-2.3a1.777,1.777,0,0,0,.4-.18c-.018.016-.909.362-.369.163.266-.1.526-.21.787-.322a10.234,10.234,0,0,0,1.424-.713,8.267,8.267,0,0,0,3.359-4.039,20.165,20.165,0,0,0,.906-4.238c.444-2.69.85-5.376,1.036-8.1a2.4,2.4,0,0,0-4.8,0Z"/><path class="c" d="M171.938,139.887a85.288,85.288,0,0,0,1.472,11.719,8.938,8.938,0,0,0,5.913,6.846c.924.368-.608-.3.047.012.244.117.491.228.736.343q1.158.543,2.313,1.09,3.133,1.481,6.264,2.964c1.425.674,2.838,1.4,4.288,2.016a2.482,2.482,0,0,0,3.284-.861,2.417,2.417,0,0,0-.861-3.284c-3.076-1.311-6.068-2.859-9.09-4.288-1.467-.694-2.928-1.4-4.405-2.076a16.952,16.952,0,0,1-2.222-1.051,3.005,3.005,0,0,1-1.39-1.93,37.047,37.047,0,0,1-.786-4.371,63.407,63.407,0,0,1-.763-7.129c-.16-3.074-4.96-3.093-4.8,0Z"/><path class="c" d="M180.021,5.411a73.836,73.836,0,0,0-30.8-5.344A70.148,70.148,0,0,0,118.3,9.158a54.75,54.75,0,0,0-17.914,15.5,70.091,70.091,0,0,0-10.523,22.9c-3.178,11.674-4.09,23.916-3.707,35.975.1,3.081,4.9,3.095,4.8,0-.581-18.308,1.67-38.095,11.788-53.841a47.459,47.459,0,0,1,14.987-14.615,66.368,66.368,0,0,1,27.792-9.927,69.222,69.222,0,0,1,33.226,4.894A2.416,2.416,0,0,0,181.7,8.363a2.458,2.458,0,0,0-1.676-2.952Z"/><path class="d" d="M219.937,322.652c-.946-12.918-3.134-33.367-3.521-42.179,3,5.155,7.238,8.478,12.3,11.2,7.48,4.01,17.73,3.18,23.42-3.12,2.11-2.34,3.25-5.35,4.46-8.27,3.36-8.17,3.73-15.17,3.5-22.73a103.8,103.8,0,0,0-2.62-20.08l-45.714-67.8c-6.1-2.5-16.667-8.2-17.745-7.509-9.425,5.5-27.787,10.411-41.726,10.356a94.5,94.5,0,0,1-40.612-10.07c-1.13-.648-10.774,4.2-16.971,6.83l-.877.4a47.134,47.134,0,0,0-15.363,11.049c-5.943,6.372-11.381,23.55-14.2,27.7,0,0-2.793,7.2-6.148,10.223-1-4.788-2.983-13.343-3.9-18.346a1.776,1.776,0,0,0-1.83-1.46c-7.22.33-28.11,4.3-34.07,6.18a1.762,1.762,0,0,0-1.22,1.85c1.59,16.54,2.11,35.1,5.68,51.98,2.54,12.03,7.03,23.69,18.03,29.19a30.4,30.4,0,0,0,26.7.65c6.67-3.03,14.71-9.92,20.24-14.59l2.225-1.811a55.732,55.732,0,0,1,.452,5.919c0,6.94-2.54,30.24-3.58,44.44Z"/><path class="c" d="M222.337,322.652c-.6-8.2-1.406-16.39-2.147-24.582-.587-6.484-1.382-13.035-1.431-19.553-.034-4.408.905-8.833,1.4-13.2a2.415,2.415,0,0,0-2.4-2.4,2.457,2.457,0,0,0-2.4,2.4c-.466,4.118-1.273,8.25-1.393,12.4a75.214,75.214,0,0,0,.348,7.592c.583,8.013,1.38,16.011,2.1,24.012.4,4.442.794,8.885,1.122,13.333a2.459,2.459,0,0,0,2.4,2.4,2.419,2.419,0,0,0,2.4-2.4Z"/><path class="c" d="M212.4,167.362c-5-2.064-10.182-5-15.426-7a7.843,7.843,0,0,0-2.606-.652c-1.251-.019-2.3.819-3.363,1.371a63.3,63.3,0,0,1-8.407,3.528c-14.144,4.9-29.2,6.9-44.012,4.242a93.791,93.791,0,0,1-22.078-6.716,29.572,29.572,0,0,0-4.32-2.043,5.43,5.43,0,0,0-2.943.314,74.148,74.148,0,0,0-7.913,3.3c-6.225,2.813-12.613,5.3-18.081,9.485a41.537,41.537,0,0,0-7.175,6.647,40.676,40.676,0,0,0-3.764,5.747c-5.121,9.173-8.589,19.155-13.574,28.385-.351.652-.718,1.3-1.131,1.911-1.726,2.571,2.43,4.977,4.145,2.422,2.277-3.39,3.817-7.362,5.5-11.066,2.323-5.129,4.6-10.283,7.139-15.31,1.106-2.191,2.257-4.367,3.559-6.449.263-.421.533-.839.814-1.25q.21-.309.428-.612c.1-.133.457-.607.165-.235a29.028,29.028,0,0,1,2.764-2.934,44.262,44.262,0,0,1,8.414-6.375,92.283,92.283,0,0,1,8.774-4.2c2.771-1.246,5.557-2.566,8.336-3.734a30.244,30.244,0,0,1,3.164-1.186c.194-.057.391-.1.585-.155.405-.116.18.04-.117,0,.706.088-1.174-.594-.648-.191a6.831,6.831,0,0,0,1.116.565,95.514,95.514,0,0,0,21.392,7.467,84.1,84.1,0,0,0,23.612,2.147,103.414,103.414,0,0,0,21.433-3.763,92.7,92.7,0,0,0,9.6-3.241c1.484-.6,2.957-1.232,4.4-1.928q.9-.435,1.786-.906c.3-.161.606-.317.9-.5a2.621,2.621,0,0,1,.371-.213c-.039-.024-.816.265-.951.27.239-.008-.614-.18-.157-.024.159.055.335.083.5.131.436.128.863.291,1.285.456.885.345,1.911.811,3.034,1.328,2.728,1.257,5.427,2.579,8.157,3.831q2,.918,4.03,1.759a2.414,2.414,0,0,0,2.952-1.676,2.461,2.461,0,0,0-1.676-2.953Z"/><path class="c" d="M77.015,205.352c1.393,10.6,2.864,21.2,4.689,31.737,1.107,6.4,2.332,12.769,3.432,19.165a192.85,192.85,0,0,1,2.823,19.936c.392,5.891-.475,11.948-.99,17.807-.841,9.551-1.808,19.093-2.512,28.655a2.421,2.421,0,0,0,2.4,2.4,2.447,2.447,0,0,0,2.4-2.4c.626-8.5,1.464-16.99,2.229-25.482.578-6.416,1.482-12.978,1.346-19.432-.137-6.484-1.437-13.031-2.5-19.41-1.09-6.547-2.3-13.072-3.484-19.6-2-11.072-3.568-22.22-5.033-33.373a2.478,2.478,0,0,0-2.4-2.4,2.413,2.413,0,0,0-2.4,2.4Z"/><path class="b" d="M27.848,140.025c-1.228-7.9-2.578-17.451-2.787-19.694-.264-2.8-.4-6.176,2.6-7.115,3.494-1.095,5.163.593,6.495,2.691C36.309,119.3,41,146.84,41.39,151.036l.133,1.426c3.618.117,7.5.461,10.4,2.662a6.833,6.833,0,0,1,1.82,2c2.067,3.612,2.443,8.319,2.474,11.587a18.53,18.53,0,0,1-2.252,8.177,76.441,76.441,0,0,0-4.387,9.606c-.8,2.956-.417,7.654,0,11.279l.146,1.283a264.786,264.786,0,0,0-29.272,5.367L20.372,204c-.483-2.846-.848-5.5-2.335-8.028-1.742-2.964-4.059-5.774-6.03-8.575C7.766,181.368,5.339,173.267,4.2,168c0,0-.044-.2-.124-.565-.159-.327-.308-.639-.446-.927-1-2.094-1.687-4.735-.915-6.839,1-2.74,5.59-3.593,7.944-1.226l.371.372L9.982,155.9c-.784-2.189,1.542-4.88,3.667-5.756a5.678,5.678,0,0,1,5.476.517l-.226-2.8c-.118-1.466.983-3.37,3.428-4.2a5.854,5.854,0,0,1,6.449,2.143C28.491,144.1,28.174,142.121,27.848,140.025Z"/><path class="c" d="M31.088,145.144c-1.059-6.316-2-12.654-2.88-19-.281-2.016-.521-3.548-.737-5.716a11.874,11.874,0,0,1,.016-3.856,1.447,1.447,0,0,1,.536-.924,3.553,3.553,0,0,1,1.859-.375A3.094,3.094,0,0,1,32,116.993c.124.2.213.433.342.625.022.034-.215-.588-.05-.109.057.163.122.325.179.488a52.476,52.476,0,0,1,1.458,5.33c1.2,5.075,2.165,10.205,3.082,15.337q.712,3.987,1.352,7.988c.159,1,.313,2,.455,3,.016.114.107.772.046.326s.02.15.031.244c.033.27.066.54.092.81a2.466,2.466,0,0,0,2.4,2.4,2.417,2.417,0,0,0,2.4-2.4c-.4-4.164-1.207-8.318-1.932-12.434-.988-5.615-2.032-11.231-3.351-16.778-1-4.2-2.166-9.884-7.075-11.134a7.924,7.924,0,0,0-6.085,1,6.512,6.512,0,0,0-2.676,4.646,26.982,26.982,0,0,0,.384,7.238q1.515,11.45,3.405,22.85a2.419,2.419,0,0,0,2.952,1.676,2.456,2.456,0,0,0,1.676-2.952Z"/><path class="c" d="M1.885,168.642A60.312,60.312,0,0,0,8.4,186.216c1.79,3.056,4.1,5.758,6.1,8.677a17.813,17.813,0,0,1,2.425,4.42,36.575,36.575,0,0,1,1.133,5.325,2.419,2.419,0,0,0,2.952,1.676,2.455,2.455,0,0,0,1.677-2.952,25.008,25.008,0,0,0-3.41-9.944c-1.983-3.058-4.4-5.818-6.31-8.924a55.083,55.083,0,0,1-6.454-17.128c-.66-3.016-5.289-1.74-4.628,1.276Z"/><path class="c" d="M43.087,170.665c-.08-1.815-.475-3.585-.726-5.379a6.51,6.51,0,0,0-2.625-4.68,11.524,11.524,0,0,0-4.137-1.585c-.319-.077-.64-.146-.956-.233-.062-.017-.717-.089-.477-.122-.135.019-.345-.2-.067.093a2.475,2.475,0,0,1-.479-1.139,2.947,2.947,0,0,1,.952-2.551c-.236.187-.223.066.107.029s.648-.164.975-.208a19.035,19.035,0,0,1,2.572-.1,34.112,34.112,0,0,1,9.232.805,7.951,7.951,0,0,1,3.642,2,9.2,9.2,0,0,1,1.843,3.926,23.036,23.036,0,0,1,.819,8.209c-.418,4.081-2.889,7.693-4.573,11.434-.516,1.147-1.022,2.3-1.493,3.467a10.207,10.207,0,0,0-.368.969c-.021.073-.044.145-.061.22-.385,1.662.1-.233-.156.678a19.143,19.143,0,0,0-.389,5.6c.054,1.9.237,3.8.449,5.684a2.472,2.472,0,0,0,2.4,2.4,2.415,2.415,0,0,0,2.4-2.4c-.371-3.3-.862-6.88-.2-10.167.032-.159.085-.315.115-.474l.042-.319c.054-.409.057-.425.01-.051-.1.084-.1.324.049,0s.269-.706.407-1.049a2.505,2.505,0,0,1,.1-.238q.147-.34.3-.679.378-.867.77-1.727c.828-1.819,1.689-3.6,2.692-5.33a19.262,19.262,0,0,0,2.358-8.8,28.451,28.451,0,0,0-1.469-10.06,12.1,12.1,0,0,0-2.927-4.957,13.32,13.32,0,0,0-4.739-2.726c-3.359-1.157-7.087-1.153-10.6-1.2a18.43,18.43,0,0,0-5.474.472,6.1,6.1,0,0,0-3.665,3.212c-1.924,3.569-.763,8.4,3.342,9.654,1.247.382,3.456.373,4.255,1.53a5.935,5.935,0,0,1,.494,2.358,29.362,29.362,0,0,1,.458,3.441c.137,3.077,4.937,3.094,4.8,0Z"/><path class="c" d="M14,169.52c-.02-.109.013-.526-.037-.136-.009.068-.052.349.01.03.068-.357-.111.3-.136.393.109-.42.084-.167.007-.037s-.127.237-.2.352c-.053.088-.112.172-.167.258-.193.305.361-.385-.063.091-.16.18-.321.356-.5.522-.132.125-.6.439-.2.19a4.157,4.157,0,0,0-.552.331c-.213.192.372-.061.105-.048a1.467,1.467,0,0,0-.324.082c-.31.114.389.007.046-.009-.1,0-.207.012-.308.013-.119,0-.934-.078-.432,0a7.594,7.594,0,0,1-.759-.163c-.108-.029-.216-.06-.322-.094-.053-.017-.6-.225-.342-.115.233.1-.1-.051-.119-.061-.129-.069-.26-.135-.386-.21s-.243-.154-.365-.231c.03.019.272.231.065.055a5.674,5.674,0,0,1-.5-.488c-.093-.1-.181-.208-.27-.313.16.187.089.123-.021-.034a24.292,24.292,0,0,1-1.774-3.053,18.465,18.465,0,0,1-1.266-2.878q-.136-.433-.24-.878c-.022-.095-.16-.86-.114-.5a6.844,6.844,0,0,1-.051-.882c0-.124,0-.248.007-.372.017-.728-.061.185.016-.211.054-.28.154-.539.222-.813-.143.573.023.093.089-.082.1-.266-.312.261-.08.1a1.7,1.7,0,0,0,.167-.181c.079-.078.164-.147.244-.224-.2.191-.29.188-.012.028.116-.066.678-.379.4-.237s-.029.012.037-.009c.142-.043.28-.092.423-.129a3.321,3.321,0,0,0,.348-.081c.272-.107-.554.027-.015,0,.242-.014.483-.027.725-.018.122,0,.242.022.363.026-.175-.007-.391-.079-.1,0,.231.061.468.147.7.2-.413-.088-.228-.118-.07-.029l.4.223c.081.044.152.1.23.152-.449-.276-.022,0,.083.106a2.4,2.4,0,1,0,3.394-3.394,7.743,7.743,0,0,0-8.372-1.428,6.376,6.376,0,0,0-3.175,2.766,8.632,8.632,0,0,0-.636,5.519,17.4,17.4,0,0,0,1.7,4.762,26.376,26.376,0,0,0,2.216,3.955,8.82,8.82,0,0,0,3.608,3.128,9.284,9.284,0,0,0,5.241.773,7.353,7.353,0,0,0,5.695-7.981,2.411,2.411,0,0,0-2.952-1.676A2.465,2.465,0,0,0,14,169.52Z"/><path class="c" d="M24.462,166.607a3.356,3.356,0,0,1-.074,1.475,1.946,1.946,0,0,1-.171.462c-.059.112-.429.647-.287.475a2.029,2.029,0,0,1-1.91.913,4.694,4.694,0,0,1-1.491-.315,6.6,6.6,0,0,1-.64-.336c-.28-.152-.035.008.026.058a2.68,2.68,0,0,1-.232-.22c-.113-.118-.361-.416-.123-.111-.166-.213-.315-.44-.463-.665-.316-.478-.609-.971-.894-1.468C17.1,164.961,16.089,163,15,161.08a39.568,39.568,0,0,1-2.1-4.271,12.559,12.559,0,0,1-.641-1.681.544.544,0,0,1-.03-.266,3.825,3.825,0,0,1,.242-.6c1.114-2.05,4.04-3,5.495-1.379,2.064,2.307,5.449-1.1,3.394-3.394-2.931-3.275-8.111-2.578-11.166.072a7.606,7.606,0,0,0-2.761,5.262c-.052,2.024,1.171,4.16,2.01,5.942,1.364,2.9,3.021,5.755,4.617,8.537a13.342,13.342,0,0,0,2.518,3.479,8.715,8.715,0,0,0,5.747,1.955,6.918,6.918,0,0,0,5.163-2.513,8.2,8.2,0,0,0,1.605-6.888,2.42,2.42,0,0,0-2.953-1.676,2.457,2.457,0,0,0-1.676,2.952Z"/><path class="c" d="M32.737,162.157A2.928,2.928,0,0,1,31.4,164.67a1.875,1.875,0,0,1-1.973.13,7.04,7.04,0,0,1-2.01-2.828c-.872-1.779-1.74-3.558-2.639-5.324-1.338-2.627-3.194-5.794-3.461-8.647-.012-.121,0-.67-.018-.513-.032.306.136-.32.033-.1-.089.185.1-.205.095-.189a2.646,2.646,0,0,1,1.106-1.027,3.355,3.355,0,0,1,3.563.291,11.375,11.375,0,0,1,2.485,3.378c.839,1.368,1.653,2.761,2.363,4.2a2.4,2.4,0,1,0,4.145-2.423,53.992,53.992,0,0,0-2.724-4.783,13.051,13.051,0,0,0-4.144-4.7c-4-2.344-10.079-.816-11.49,3.931-.56,1.883.008,4,.631,5.8a52.547,52.547,0,0,0,2.892,6.462c1.1,2.167,2.122,4.378,3.249,6.528a9.642,9.642,0,0,0,4.023,4.361,6.865,6.865,0,0,0,6.526-.539,7.9,7.9,0,0,0,3.489-6.518c.154-3.088-4.647-3.079-4.8,0Z"/><path class="c" d="M65.975,243.956c-1.964-8.827-3.986-17.641-5.877-26.484q-1.356-6.346-2.6-12.718-.3-1.54-.585-3.083a9.591,9.591,0,0,0-.842-3.183c-.994-1.682-2.767-2.121-4.581-1.989a156.637,156.637,0,0,0-16.755,2.451c-5.362.982-10.773,1.981-16.025,3.458-1.616.454-3.1,1.13-3.719,2.83-.7,1.919-.018,4.477.15,6.477.369,4.383.685,8.77,1.023,13.156.7,9.169,1.506,18.342,2.975,27.425,2.325,14.383,6.579,31.131,20.909,38.037a33.326,33.326,0,0,0,25.282,1.8c7.557-2.589,13.955-7.85,20.024-12.882,1.374-1.14,2.737-2.294,4.1-3.446a2.419,2.419,0,0,0,0-3.394,2.451,2.451,0,0,0-3.394,0c-5.458,4.611-10.936,9.4-17.2,12.909a28.262,28.262,0,0,1-21.243,2.775A26.6,26.6,0,0,1,31.6,276.223c-3.533-5.741-5.341-12.345-6.681-18.9-3.354-16.393-3.783-33.185-5.347-49.8a4.623,4.623,0,0,0-.063-.654c-.016,0-.281.233-.289.36s-.084,0,.191-.031a10.312,10.312,0,0,0,1.309-.366c.991-.264,1.988-.506,2.986-.739,2.6-.607,5.221-1.153,7.843-1.671,5.4-1.065,11.319-2.132,16.447-2.768,1.031-.128,2.065-.244,3.1-.329a8.125,8.125,0,0,0,1.3-.086c-.022.053-.513-.289-.484-.3a16.717,16.717,0,0,0,.33,1.784q1.116,5.988,2.364,11.95c1.68,8.07,3.5,16.11,5.305,24.153q.718,3.2,1.431,6.4c.671,3.014,5.3,1.739,4.629-1.276Z"/><path class="c" d="M255.166,238.112a95.96,95.96,0,0,1,2.508,18.659,56.565,56.565,0,0,1-1.687,18.013,50.714,50.714,0,0,1-3.443,8.825,13.794,13.794,0,0,1-5.047,5.722,17.736,17.736,0,0,1-13.751,1.752,26.647,26.647,0,0,1-14.533-10.64c-1.7-2.559-5.864-.158-4.145,2.422,6.832,10.255,20.455,16.989,32.416,11.855a17.862,17.862,0,0,0,6.883-5.094c2.178-2.712,3.453-5.954,4.731-9.157a53.391,53.391,0,0,0,3.454-20.413,103.786,103.786,0,0,0-2.757-23.22c-.721-3-5.351-1.731-4.629,1.276Z"/><path class="c" d="M280.332,144.642l-.667,9.851a2.414,2.414,0,0,0,2.4,2.4,2.458,2.458,0,0,0,2.4-2.4l.667-9.851a2.413,2.413,0,0,0-2.4-2.4,2.457,2.457,0,0,0-2.4,2.4Z"/><path class="c" d="M294.915,168.3c3.17-.8,6.365-1.553,9.6-2.058a2.406,2.406,0,0,0,1.435-1.1,2.456,2.456,0,0,0,.242-1.85,2.429,2.429,0,0,0-1.1-1.434,2.778,2.778,0,0,0-1.85-.242c-3.233.506-6.428,1.255-9.6,2.059a2.4,2.4,0,0,0,1.276,4.628Z"/><path class="c" d="M291.754,159.574a75.209,75.209,0,0,1,7.148-7.067,2.414,2.414,0,0,0,0-3.394,2.459,2.459,0,0,0-3.394,0,75.2,75.2,0,0,0-7.148,7.066,2.545,2.545,0,0,0-.7,1.7,2.4,2.4,0,0,0,4.1,1.7Z"/><path class="b" d="M278.618,237.938a27.591,27.591,0,0,0,2.683-2.166,7.484,7.484,0,0,0,2.091-3.883,7.207,7.207,0,0,0-1.792-4.928l-2.175-1.918c-.579.378-1.2.75-1.851,1.1a5.3,5.3,0,0,1-2.65.586c-3.441,2.373-3.841,3.149-5.975,5.7a5.988,5.988,0,0,0-1.128,2,5.334,5.334,0,0,0-.156,3.23c.793,2.378,1.689,2.49,3.068,3.077a5.3,5.3,0,0,0,4.585-.588A32.839,32.839,0,0,0,278.618,237.938Z"/><path class="c" d="M279.9,228.658c.081.077.166.183.254.254-.291-.234-.126-.2-.028-.032.139.234.271.467.4.706.046.085.165.419.008,0,.05.131.1.263.142.4.087.258.162.521.224.786.052.219.119.846.076.271.015.2.006.409.031.6.041.314.008-.084.03-.163-.043.155-.068.312-.113.467a4.442,4.442,0,0,1-.159.468c.118-.283-.1.162-.142.244a6.459,6.459,0,0,1-1.706,2.028c-.158.132-.319.261-.481.39-.089.071-.18.14-.268.212-.26.211.334-.247.054-.041-.446.328-.884.666-1.333.99-.767.554-1.543,1.1-2.355,1.59a7.932,7.932,0,0,1-1.042.534,2.521,2.521,0,0,1-1.584.24,7.494,7.494,0,0,1-.838-.307,2.633,2.633,0,0,1-.284-.115c.033.019.524.258.174.072-.142-.075-.287-.15-.43-.222-.083-.042-.344-.23-.043-.009.381.281-.1-.054-.082-.1l-.1-.115.174.225c-.063-.1-.133-.2-.194-.308s-.128-.241-.187-.363c.05.1.136.4-.03-.089a2.469,2.469,0,0,1-.112-1.549c.03-.134.064-.267.1-.4,0,.006.259-.7.123-.4a6.732,6.732,0,0,1,.5-.839c.069-.091.473-.567.66-.8.221-.269.44-.537.663-.8a18.892,18.892,0,0,1,2.86-2.787,2.414,2.414,0,0,0,0-3.394,2.461,2.461,0,0,0-3.4,0,19.884,19.884,0,0,0-3.07,3.041,12.952,12.952,0,0,0-3,4.833,7.752,7.752,0,0,0,.748,5.966,6.27,6.27,0,0,0,3.372,2.662,7.2,7.2,0,0,0,5.525.079,16.649,16.649,0,0,0,3.477-1.938c2.211-1.538,4.513-3.1,5.982-5.407a7.523,7.523,0,0,0,1.132-5.58,8.688,8.688,0,0,0-2.332-4.7,2.4,2.4,0,0,0-3.394,3.394Z"/><path class="b" d="M195.266,248.45c2.223-16.176,9.447-69.323,11.692-85.648a4.008,4.008,0,0,1,4.534-3.427l65.532,9.2a4.008,4.008,0,0,1,3.417,4.525c-3.534,25.47-8.616,62.094-11.876,85.421a4.01,4.01,0,0,1-4.523,3.423c-13.687-1.891-51.991-7.131-65.343-8.973A4.013,4.013,0,0,1,195.266,248.45Z"/><path class="b" d="M284.946,205.622c.56-.593,1.166-1.249,1.83-1.98a10.525,10.525,0,0,0,2.7-4.265,5.762,5.762,0,0,0-1.044-4.928,6.819,6.819,0,0,0-4.906-2.484,9.668,9.668,0,0,0-1.206.09c-2.242.314-3.5,1.432-5.243,3.374-1.93,2.217-2.754,2.955-4.163,4.857a14.838,14.838,0,0,0-3.043,6.139,6.159,6.159,0,0,0,1.169,4.491,5.742,5.742,0,0,0,3.291,1.569c-.276.309-.438.492-.438.492a15.886,15.886,0,0,0-3.694,6.873,6.2,6.2,0,0,0,1.21,5.361,5.294,5.294,0,0,0,6.169.933A23.276,23.276,0,0,0,283,222.162c1.565-1.61,3.24-2.837,3.958-4.722a12.866,12.866,0,0,0,.848-2.592c.14-1.555.4-2.628-.282-4.018-.963-1.976-2.885-2.562-5.421-2.386C282.943,207.685,283.859,206.771,284.946,205.622Z"/><path class="b" d="M200.206,180.74a8.359,8.359,0,0,0-5.116,1.518c-2.916,2-2.816,5.708-1.2,8.9,2.531,4.987,4.136,9.156,7.191,13.563,1.05-7.691,2.095-15.362,3.027-22.21l-.254-.254A5.529,5.529,0,0,0,200.206,180.74Z"/><path class="c" d="M205.555,180.561a8.911,8.911,0,0,0-9.213-1.609c-3.364,1.24-5.72,3.792-5.962,7.451-.23,3.48,1.772,6.573,3.21,9.584a76.787,76.787,0,0,0,5.007,9.336c1.694,2.567,5.853.166,4.145-2.423a63.033,63.033,0,0,1-4.1-7.442c-.647-1.344-1.28-2.693-1.937-4.032a16.052,16.052,0,0,1-1.383-3.287c-.428-1.777-.108-3.22,1.6-4.2s3.969-1.186,5.242.012c2.248,2.116,5.649-1.271,3.394-3.394Z"/><path class="e" d="M263.708,194.7c-1.636-.233-45.221-6.363-46.772-6.583a2,2,0,0,1-1.708-2.269c.175-1.223,1.647-11.726,1.807-12.942a2.01,2.01,0,0,1,2.276-1.726c1.554.221,45.144,6.353,46.784,6.586a2.008,2.008,0,0,1,1.7,2.269l-1.821,12.954A2.008,2.008,0,0,1,263.708,194.7Z"/><path class="c" d="M279.776,194.014q1.116-8.042,2.246-16.081c.335-2.4,1.238-5.428.406-7.765a6.46,6.46,0,0,0-3.6-3.832,12.375,12.375,0,0,0-3.124-.65L244.473,161.3l-30.741-4.316a15.484,15.484,0,0,0-3.369-.339,6.448,6.448,0,0,0-4.64,2.537c-1.313,1.731-1.36,3.947-1.645,6.021q-.87,6.351-1.736,12.7-2.292,16.794-4.58,33.59-2.055,15.078-4.114,30.155-.346,2.532-.694,5.066a8.041,8.041,0,0,0,.24,4.323,6.456,6.456,0,0,0,3.775,3.665,28.445,28.445,0,0,0,5.877.939l7.006.963,34.76,4.767q7.484,1.028,14.968,2.057c2.347.323,4.994,1.078,7.261.167,2.5-1,3.694-3.161,4.071-5.7,1.262-8.482,2.614-16.95,3.9-25.427.182-1.2.368-2.4.537-3.6a2.482,2.482,0,0,0-1.676-2.952,2.417,2.417,0,0,0-2.953,1.676c-1.091,7.784-2.376,15.544-3.57,23.313q-.389,2.531-.772,5.06c-.17,1.131-.115,2.827-1.414,3.226a1.6,1.6,0,0,1-1.03.032c-.422-.055-.844-.116-1.266-.174l-2.845-.392-6.752-.929q-16.661-2.288-33.321-4.57-7.342-1.008-14.684-2.016c-1.829-.251-3.66-.49-5.487-.755-2.311-.336-2.1-1.656-1.863-3.4q1.8-13.087,3.575-26.178,2.238-16.415,4.475-32.83c1.125-8.246,2.01-16.57,3.387-24.778.163-.973.533-1.6,1.542-1.78a3.189,3.189,0,0,1,1.009.087l1.236.173,5.933.833L234,164.639l32.667,4.587,6.311.886c1.329.186,4.438.042,4.931,1.606a5.27,5.27,0,0,1-.146,2.262q-.25,1.79-.5,3.578-.584,4.18-1.168,8.359-.477,3.411-.952,6.821a2.484,2.484,0,0,0,1.676,2.953,2.419,2.419,0,0,0,2.953-1.677Z"/><path class="c" d="M225.347,174.211c11.146,1.57,22.279,3.234,33.413,4.883l5.273.781c.427.063.853.136,1.282.189.042,0,.085.016.128.018.59.035.059.112.066-.06s-.009-.9-.06-.371c-.367,3.884-1.091,7.764-1.634,11.628a4.426,4.426,0,0,0-.187,1.236c.111.428-.122-.108.1-.1a2.541,2.541,0,0,1,.3-.095c.042-.027.4.13.224.053a1.325,1.325,0,0,0-.328-.046c-.969-.124-1.937-.273-2.9-.409l-11.7-1.647-27.031-3.8-3.689-.519c-.294-.042-.588-.09-.883-.125-.036,0-.072-.011-.108-.015-.4-.042-.214-.1-.233-.008.007-.036.449.542.167.632a1.507,1.507,0,0,0,.045-.323c.452-4.386,1.211-8.76,1.808-13.129q.15-1.1.3-2.209a2.413,2.413,0,0,0-2.4-2.4,2.461,2.461,0,0,0-2.4,2.4c-.058.433.089-.65.035-.263-.02.139-.038.277-.057.416q-.09.671-.183,1.34-.25,1.833-.5,3.664-.523,3.81-1.05,7.619a23.377,23.377,0,0,0-.327,2.464,4.434,4.434,0,0,0,3.5,4.422c.711.151,1.456.206,2.175.307l26.863,3.779,13.2,1.857,3.708.523.767.108a4.486,4.486,0,0,0,4.955-2.479,17.431,17.431,0,0,0,.851-4.744l1-7.133c.314-2.233.8-4.528-1.162-6.232-1.214-1.055-2.819-1.1-4.331-1.321-11.351-1.68-22.7-3.371-34.061-5q-1.828-.263-3.658-.521a2.482,2.482,0,0,0-2.953,1.676,2.418,2.418,0,0,0,1.677,2.953Z"/><path class="c" d="M281.678,189.74a10.419,10.419,0,0,0-5.967,3.624c-1.588,1.723-3.176,3.471-4.594,5.339a16.641,16.641,0,0,0-3.593,7.3c-.344,2.265.215,5.131,1.958,6.748a7.5,7.5,0,0,0,7.421,1.792,18.934,18.934,0,0,0,4.573-2.521,34.452,34.452,0,0,0,4.4-3.9c1.842-1.9,3.992-3.886,5.193-6.272a8.28,8.28,0,0,0-.944-9.1,8.883,8.883,0,0,0-7.809-3.1,2.475,2.475,0,0,0-2.4,2.4,2.415,2.415,0,0,0,2.4,2.4,4.36,4.36,0,0,1,4.236,1.478,3.433,3.433,0,0,1,.131,3.937,25.775,25.775,0,0,1-3.99,4.637,38.081,38.081,0,0,1-3.393,3.183c-.316.257.445-.313-.084.066-.109.078-.215.158-.324.236q-.36.257-.733.5c-.529.34-1.074.653-1.63.946-1.413.746-2.345.887-3.605-.03.366.267-.416-.445-.095-.036a1.864,1.864,0,0,1-.389-.8c-.05-.176-.1-.35-.138-.528,0-.021-.089-.465-.047-.164a4.731,4.731,0,0,1-.038-.52c0-.123.009-.753-.035-.291.2-2.052,1.613-3.969,2.8-5.565,1.094-1.47,2.515-2.951,3.788-4.372.352-.392.709-.78,1.085-1.15.135-.134.273-.267.415-.4-.013.012.556-.459.344-.3a5.146,5.146,0,0,1,1.1-.64c-.313.126.211-.051.282-.069.319-.08.634-.149.959-.2a2.417,2.417,0,0,0,1.677-2.952A2.46,2.46,0,0,0,281.678,189.74Z"/><path class="c" d="M272.192,211.28a17.176,17.176,0,0,0-4.521,9.258c-.389,3.777,1.9,7.659,5.756,8.416,3.988.782,7.467-1.7,10.325-4.2a37.5,37.5,0,0,0,3.614-3.561,13.319,13.319,0,0,0,2.523-4.745,9.59,9.59,0,0,0-.049-6.266,6.578,6.578,0,0,0-4.915-3.976,2.465,2.465,0,0,0-2.953,1.677,2.423,2.423,0,0,0,1.677,2.952,6.6,6.6,0,0,1,.855.215c.387.129-.273-.123.087.041a2.431,2.431,0,0,1,.3.177c-.379-.243.414.422.164.116a4.08,4.08,0,0,1,.374.627,5.876,5.876,0,0,1-.134,3.043,7.608,7.608,0,0,1-1.327,2.745c-.885,1.023-1.916,1.935-2.881,2.881a16.67,16.67,0,0,1-2.726,2.191c-.6.4-1.223.783-1.861,1.125-.02.011-.541.256-.281.151.219-.089-.148.04-.156.042-.155.038-.309.081-.465.118-.412.1.047.016-.2.019a6.563,6.563,0,0,1-.853-.018c.4.047-.321-.09-.431-.123a2.024,2.024,0,0,1-.856-.5,3.988,3.988,0,0,1-.637-1.13,4.111,4.111,0,0,1-.191-1.531c-.007-.449,0-.221-.014-.083a5.553,5.553,0,0,1,.129-.6c.1-.39.21-.775.339-1.155a10.308,10.308,0,0,1,.808-1.812,16.337,16.337,0,0,1,1.024-1.627c.085-.119.172-.236.259-.354-.2.264-.053.067.069-.081.177-.214.357-.427.54-.636a2.457,2.457,0,0,0,0-3.394,2.422,2.422,0,0,0-3.394,0Z"/><path class="c" d="M258.955,211.238l-4.125-.588-.9-.128c-.163-.023-.33-.039-.491-.074l-.137-.033q-.363-.12.187.094c-.011-.019-.248-.134-.235-.135l.272.213a2.1,2.1,0,0,1-.191-.186c.178.038.316.46.1.109-.3-.486.156.448.016.016-.152-.468.028.593.022.093,0-.181.095-.338-.04.195a8.161,8.161,0,0,0,.119-.842q.149-1.065.293-2.131.09-.661.178-1.323l.022-.166q.054-.411-.019.175c.013-.009.073-.287.073-.273l-.137.318a2.129,2.129,0,0,1,.135-.237c.019.2-.35.382-.123.17.351-.327-.5.253-.069.039a2.248,2.248,0,0,1,.237-.128q-.522.207-.257.126c.377-.145.08.164-.164.006l.14,0c.249.015.19,0-.179-.039.3.045.6.085.9.128l2.063.294c.691.1,1.382.194,2.071.3.107.016.218.027.324.051l.137.033q.363.12-.188-.094l.12.064q.313.2-.158-.142l.1.091q.253.274-.117-.182l.073.111q.18.332-.064-.215a1.439,1.439,0,0,0,.081.256c.168.458-.036-.589-.022-.093.012.464.067-.378.062-.344-.02.15-.042.3-.063.45l-.281,2c-.083.594-.161,1.189-.25,1.782-.011.073-.02.143-.035.216l-.033.137q-.12.363.094-.187a1.725,1.725,0,0,1-.1.178c-.1.153-.039.082.178-.215l-.091.1q-.273.254.182-.116a1.326,1.326,0,0,0-.346.2l.323-.145a2.2,2.2,0,0,1-.263.066q.618-.067.226-.051a2.218,2.218,0,0,1-.283-.022,2.406,2.406,0,0,0-2.4,2.4,2.468,2.468,0,0,0,2.4,2.4,4.584,4.584,0,0,0,4.642-3.133,8.507,8.507,0,0,0,.3-1.7l.35-2.492q.042-.294.083-.589a4.993,4.993,0,0,0-.294-2.781,4.469,4.469,0,0,0-1.925-2.154,6.882,6.882,0,0,0-2.507-.652l-2.553-.365a15.389,15.389,0,0,0-2.688-.336,4.616,4.616,0,0,0-4.324,3.5c-.072.334-.1.682-.141,1.021l-.033.247s.067-.494.029-.214q-.084.62-.169,1.239c-.113.825-.234,1.649-.345,2.474a4.569,4.569,0,0,0,3.423,5.059c.882.19,1.807.262,2.7.389l2.818.4a2.638,2.638,0,0,0,1.849-.242,2.443,2.443,0,0,0,1.1-1.434C260.889,213.056,260.284,211.427,258.955,211.238Z"/><path class="c" d="M254.049,246.142l-4.124-.587-.9-.128c-.164-.023-.33-.039-.491-.075l-.138-.033q-.363-.12.187.095c-.01-.019-.248-.135-.234-.136l.271.213a2.234,2.234,0,0,1-.191-.186c.179.039.316.46.1.11-.3-.486.156.448.016.015-.151-.468.028.594.023.094,0-.182.094-.339-.041.195a8.161,8.161,0,0,0,.119-.842q.15-1.067.294-2.132.09-.661.178-1.323l.022-.165q.054-.413-.02.174c.013-.008.074-.286.073-.272l-.136.317a2.209,2.209,0,0,1,.135-.236c.018.2-.35.382-.123.17.35-.328-.5.252-.069.039a2.152,2.152,0,0,1,.236-.128q-.522.206-.256.125c.376-.145.079.164-.165.006l.141,0q.374.022-.179-.039c.3.045.6.085.9.128l2.063.295c.69.1,1.381.193,2.071.295.107.016.218.028.324.051l.137.033q.363.122-.188-.094l.119.065q.315.2-.158-.142l.1.09q.254.274-.117-.182l.074.111q.179.332-.065-.215a1.506,1.506,0,0,0,.081.257c.169.458-.035-.589-.022-.094.013.465.068-.378.063-.343l-.063.45-.281,2c-.084.593-.161,1.188-.251,1.781-.011.073-.019.143-.035.216l-.033.137q-.12.363.095-.186a1.71,1.71,0,0,1-.1.177c-.1.154-.039.083.177-.214l-.09.1q-.275.254.182-.116a1.262,1.262,0,0,0-.347.2l.323-.145a2.148,2.148,0,0,1-.263.065q.62-.067.226-.051a2.232,2.232,0,0,1-.283-.021,2.406,2.406,0,0,0-2.4,2.4,2.469,2.469,0,0,0,2.4,2.4,4.586,4.586,0,0,0,4.643-3.134,8.626,8.626,0,0,0,.3-1.7l.35-2.492c.027-.2.055-.392.082-.588a4.989,4.989,0,0,0-.294-2.782,4.466,4.466,0,0,0-1.925-2.153,6.858,6.858,0,0,0-2.507-.653l-2.552-.364a15.5,15.5,0,0,0-2.689-.337,4.616,4.616,0,0,0-4.323,3.5c-.072.334-.1.681-.141,1.02-.011.083-.023.165-.033.247,0,0,.067-.493.029-.213q-.084.618-.169,1.238c-.114.825-.234,1.649-.345,2.475a4.569,4.569,0,0,0,3.422,5.059c.883.189,1.807.261,2.7.388l2.817.4a2.638,2.638,0,0,0,1.849-.242,2.443,2.443,0,0,0,1.1-1.434C255.984,247.961,255.378,246.331,254.049,246.142Z"/><path class="c" d="M217.913,241.064l-4.124-.588-.9-.128c-.164-.023-.33-.039-.491-.074l-.138-.033q-.363-.12.187.094c-.01-.019-.248-.135-.234-.136l.271.214a2.234,2.234,0,0,1-.191-.186c.179.038.316.46.1.109-.3-.486.156.448.016.016-.151-.468.028.593.023.093,0-.182.094-.338-.041.195a8.161,8.161,0,0,0,.119-.842q.15-1.065.294-2.132.09-.661.178-1.323l.022-.165q.054-.413-.02.174c.013-.008.074-.286.073-.272l-.136.318a2.129,2.129,0,0,1,.135-.237c.018.2-.35.382-.123.17.35-.327-.5.252-.069.039a2.152,2.152,0,0,1,.236-.128c-.348.138-.433.179-.256.126.376-.145.079.164-.165,0l.141,0q.373.024-.179-.039c.3.046.6.086.9.128l2.063.295c.69.1,1.381.194,2.071.3.107.015.218.027.324.05l.137.034q.363.12-.188-.094l.119.064q.315.2-.158-.142l.1.09q.254.275-.117-.182l.074.112q.178.332-.065-.215a1.526,1.526,0,0,0,.081.256c.169.458-.035-.589-.022-.093.013.464.068-.378.063-.344l-.063.45-.281,2c-.084.594-.161,1.189-.251,1.782-.011.072-.019.143-.035.216l-.033.137q-.12.363.095-.187a1.71,1.71,0,0,1-.1.177c-.1.154-.039.083.177-.214l-.09.1q-.275.254.182-.116a1.315,1.315,0,0,0-.347.2l.323-.145a2.352,2.352,0,0,1-.263.066q.62-.069.226-.051a2.233,2.233,0,0,1-.283-.022,2.406,2.406,0,0,0-2.4,2.4,2.469,2.469,0,0,0,2.4,2.4,4.585,4.585,0,0,0,4.643-3.134,8.626,8.626,0,0,0,.3-1.7l.35-2.492c.027-.2.055-.392.082-.588a4.985,4.985,0,0,0-.294-2.781,4.464,4.464,0,0,0-1.925-2.154,6.837,6.837,0,0,0-2.507-.652l-2.552-.365a15.5,15.5,0,0,0-2.689-.337,4.616,4.616,0,0,0-4.323,3.5c-.072.334-.1.682-.141,1.021-.011.082-.023.164-.033.246l.029-.213q-.084.62-.169,1.238c-.114.826-.234,1.65-.345,2.475a4.569,4.569,0,0,0,3.422,5.059c.883.19,1.807.261,2.7.389l2.817.4a2.638,2.638,0,0,0,1.849-.242,2.443,2.443,0,0,0,1.1-1.434C219.848,242.882,219.242,241.253,217.913,241.064Z"/><path class="c" d="M235.981,243.6q-2.062-.293-4.124-.588l-.9-.128c-.164-.023-.33-.039-.491-.074l-.138-.033q-.363-.12.187.094c-.01-.018-.248-.134-.234-.135l.271.213a2.234,2.234,0,0,1-.191-.186c.179.038.316.46.1.109-.3-.486.156.449.016.016-.151-.468.028.593.023.093,0-.181.094-.338-.041.195a8.085,8.085,0,0,0,.119-.842q.15-1.065.294-2.131.09-.662.178-1.323l.022-.166q.054-.411-.02.175c.013-.009.074-.286.073-.273l-.136.318a2.129,2.129,0,0,1,.135-.237c.018.2-.35.383-.123.17.35-.327-.5.253-.069.039a2.144,2.144,0,0,1,.236-.127q-.522.206-.256.125c.376-.145.079.164-.165.006l.141,0q.374.023-.179-.039c.3.045.6.085.9.128l2.063.294c.69.1,1.381.194,2.071.3.107.016.218.027.324.051l.137.033q.363.12-.188-.094l.119.064q.315.2-.158-.142l.1.091q.254.274-.117-.182l.074.111q.178.332-.065-.215a1.535,1.535,0,0,0,.081.257c.169.458-.035-.59-.022-.094.013.464.068-.378.063-.343l-.063.449-.281,2c-.084.594-.161,1.189-.251,1.782-.011.073-.019.143-.035.216l-.033.137q-.12.363.095-.187a1.626,1.626,0,0,1-.1.178c-.1.154-.039.082.177-.214l-.09.1q-.274.253.182-.115a1.262,1.262,0,0,0-.347.2l.323-.146a1.984,1.984,0,0,1-.263.066q.619-.068.226-.051a2.062,2.062,0,0,1-.283-.022,2.406,2.406,0,0,0-2.4,2.4,2.468,2.468,0,0,0,2.4,2.4,4.584,4.584,0,0,0,4.643-3.133,8.652,8.652,0,0,0,.3-1.7l.35-2.492c.027-.2.055-.392.082-.588a4.988,4.988,0,0,0-.294-2.782,4.468,4.468,0,0,0-1.925-2.154,6.877,6.877,0,0,0-2.507-.652l-2.552-.365a15.4,15.4,0,0,0-2.689-.336,4.615,4.615,0,0,0-4.323,3.5c-.072.334-.1.681-.141,1.02-.011.082-.023.164-.033.247,0,0,.067-.494.029-.214q-.084.619-.169,1.239c-.114.825-.234,1.649-.345,2.474a4.57,4.57,0,0,0,3.422,5.06c.883.189,1.807.261,2.7.388l2.817.4a2.648,2.648,0,0,0,1.849-.242,2.448,2.448,0,0,0,1.1-1.435C237.916,245.422,237.31,243.792,235.981,243.6Z"/><path class="c" d="M256.5,228.69l-4.124-.587-.9-.129c-.163-.023-.33-.039-.491-.074l-.137-.033q-.363-.12.187.094c-.011-.018-.248-.134-.235-.135l.272.213a2.234,2.234,0,0,1-.191-.186c.178.038.316.46.1.109-.3-.485.156.449.016.016-.152-.468.028.593.023.093,0-.181.094-.338-.041.195a8.1,8.1,0,0,0,.119-.841q.149-1.067.294-2.132.088-.661.178-1.323l.022-.166q.054-.411-.02.175c.013-.008.073-.286.073-.273l-.137.318a2.129,2.129,0,0,1,.135-.237c.019.2-.349.383-.122.171.35-.328-.5.252-.07.038a2.158,2.158,0,0,1,.237-.127c-.348.137-.434.179-.256.125.376-.145.079.164-.165.006l.14,0q.374.022-.178-.039c.3.045.6.085.9.128l2.063.295c.69.1,1.381.193,2.07.295.107.016.219.027.325.051l.136.033q.363.12-.188-.094l.12.064q.315.2-.158-.141l.1.09q.253.274-.117-.182l.073.111q.18.332-.064-.215a1.506,1.506,0,0,0,.081.257c.168.458-.035-.59-.022-.094.013.464.067-.378.063-.343-.021.15-.042.3-.064.449l-.281,2c-.083.594-.16,1.189-.25,1.782-.011.073-.02.143-.035.216l-.033.137q-.12.363.094-.187a1.476,1.476,0,0,1-.1.178c-.1.154-.039.082.178-.214l-.09.1q-.275.254.182-.115a1.262,1.262,0,0,0-.347.2l.323-.145a2.148,2.148,0,0,1-.263.065c.412-.045.488-.062.226-.051a2.062,2.062,0,0,1-.283-.022,2.406,2.406,0,0,0-2.4,2.4,2.467,2.467,0,0,0,2.4,2.4,4.582,4.582,0,0,0,4.642-3.133,8.507,8.507,0,0,0,.3-1.7l.351-2.492c.027-.2.055-.392.082-.588a4.989,4.989,0,0,0-.294-2.782,4.473,4.473,0,0,0-1.925-2.154,6.877,6.877,0,0,0-2.507-.652l-2.553-.365a15.389,15.389,0,0,0-2.688-.336,4.615,4.615,0,0,0-4.323,3.5c-.073.334-.1.681-.141,1.02-.011.082-.023.165-.033.247,0,0,.066-.494.028-.214L246.631,225c-.114.825-.235,1.649-.345,2.474a4.569,4.569,0,0,0,3.422,5.06c.883.189,1.807.261,2.7.388l2.817.4a2.649,2.649,0,0,0,1.849-.242,2.445,2.445,0,0,0,1.1-1.435C258.436,230.509,257.831,228.879,256.5,228.69Z"/><path class="c" d="M220.366,223.611l-4.124-.587-.9-.128c-.163-.023-.33-.039-.491-.074l-.137-.034q-.363-.12.187.095c-.011-.019-.248-.135-.235-.136l.272.213a2.234,2.234,0,0,1-.191-.186c.178.039.316.46.1.11-.3-.486.156.448.016.016-.152-.469.028.593.023.093,0-.182.094-.339-.041.195a8.161,8.161,0,0,0,.119-.842q.149-1.065.294-2.132.089-.661.178-1.323l.022-.165q.054-.413-.02.174c.013-.008.073-.286.073-.272l-.137.318a2.129,2.129,0,0,1,.135-.237c.019.2-.349.382-.122.17.35-.328-.5.252-.07.039a2.166,2.166,0,0,1,.237-.128c-.348.137-.434.179-.256.125.376-.145.079.164-.165.006l.14,0q.373.024-.178-.039c.3.045.6.085.9.128l2.063.295c.69.1,1.381.193,2.07.3.107.016.219.028.325.051l.136.033q.363.121-.188-.094l.12.065q.315.2-.158-.142l.1.09q.254.274-.117-.182l.073.111q.18.332-.064-.215a1.506,1.506,0,0,0,.081.257c.168.458-.035-.589-.022-.094.013.465.067-.377.063-.343-.021.15-.042.3-.064.45l-.281,2c-.083.594-.16,1.189-.25,1.781-.011.073-.02.143-.035.216l-.033.137c-.08.243-.049.18.094-.186a1.544,1.544,0,0,1-.1.177q-.147.231.178-.214l-.09.1q-.274.254.182-.116a1.288,1.288,0,0,0-.347.2l.323-.145a2.148,2.148,0,0,1-.263.065c.412-.045.488-.062.226-.051a2.232,2.232,0,0,1-.283-.021,2.4,2.4,0,0,0-2.4,2.4,2.468,2.468,0,0,0,2.4,2.4,4.584,4.584,0,0,0,4.642-3.134,8.482,8.482,0,0,0,.3-1.7l.351-2.492c.027-.2.055-.392.082-.588a4.989,4.989,0,0,0-.294-2.782,4.471,4.471,0,0,0-1.925-2.153,6.858,6.858,0,0,0-2.507-.653l-2.553-.364a15.487,15.487,0,0,0-2.688-.337,4.615,4.615,0,0,0-4.323,3.5c-.073.334-.1.682-.141,1.021-.011.082-.023.164-.033.246,0,0,.066-.493.028-.213l-.168,1.238c-.114.825-.235,1.649-.345,2.475a4.568,4.568,0,0,0,3.422,5.059c.883.19,1.807.261,2.7.389l2.817.4a2.638,2.638,0,0,0,1.849-.242,2.443,2.443,0,0,0,1.1-1.434C222.3,225.43,221.7,223.8,220.366,223.611Z"/><path class="c" d="M238.434,226.151l-4.124-.588-.9-.128c-.163-.023-.33-.039-.491-.074l-.137-.033q-.363-.12.187.094c-.011-.019-.248-.134-.235-.135l.272.213a2.234,2.234,0,0,1-.191-.186c.178.038.316.46.1.109-.3-.486.156.448.016.016-.152-.468.028.593.023.093,0-.181.094-.338-.041.195a8.161,8.161,0,0,0,.119-.842q.148-1.065.294-2.132.089-.66.178-1.322l.022-.166c.036-.275.029-.216-.02.174.013-.008.073-.286.073-.272l-.137.318a2.129,2.129,0,0,1,.135-.237c.019.2-.349.382-.122.17.35-.327-.5.252-.07.039a2.351,2.351,0,0,1,.237-.128c-.348.138-.434.18-.256.126.376-.145.079.164-.165,0l.14,0q.374.024-.178-.039c.3.046.6.086.9.128l2.063.3c.69.1,1.381.194,2.07.3.107.015.219.027.325.05l.136.034q.363.12-.188-.094l.12.064q.315.2-.158-.142l.1.091q.253.275-.117-.182l.073.111q.18.332-.064-.215a1.526,1.526,0,0,0,.081.256c.168.458-.035-.589-.022-.093.013.464.067-.378.063-.344-.021.15-.042.3-.064.45l-.281,2c-.083.594-.16,1.189-.25,1.782-.011.072-.02.143-.035.216l-.033.137q-.12.363.094-.187a1.544,1.544,0,0,1-.1.177q-.147.231.178-.214l-.09.1q-.274.253.182-.116a1.315,1.315,0,0,0-.347.2l.323-.145a2.152,2.152,0,0,1-.263.066c.412-.046.488-.062.226-.051a2.233,2.233,0,0,1-.283-.022,2.406,2.406,0,0,0-2.4,2.4,2.468,2.468,0,0,0,2.4,2.4,4.583,4.583,0,0,0,4.642-3.134,8.485,8.485,0,0,0,.3-1.7l.351-2.492c.027-.2.055-.393.082-.589a4.985,4.985,0,0,0-.294-2.781,4.469,4.469,0,0,0-1.925-2.154,6.837,6.837,0,0,0-2.507-.652L235.888,217a15.487,15.487,0,0,0-2.688-.337,4.615,4.615,0,0,0-4.323,3.5c-.073.334-.1.682-.141,1.021-.011.082-.023.164-.033.247,0,0,.066-.494.028-.214l-.168,1.239c-.114.825-.235,1.649-.345,2.474a4.568,4.568,0,0,0,3.422,5.059c.883.19,1.807.262,2.7.389l2.817.4a2.638,2.638,0,0,0,1.849-.242,2.443,2.443,0,0,0,1.1-1.434C240.368,227.969,239.763,226.34,238.434,226.151Z"/><path class="c" d="M222.819,206.159l-4.125-.587-.9-.128c-.163-.024-.33-.039-.491-.075l-.137-.033q-.363-.12.187.094c-.011-.018-.248-.134-.235-.135l.272.213a2.1,2.1,0,0,1-.191-.186c.178.038.316.46.1.109-.3-.485.156.449.016.016-.152-.468.028.593.022.093,0-.181.095-.338-.04.2a8.1,8.1,0,0,0,.119-.841q.148-1.067.293-2.132.09-.661.178-1.323l.022-.165q.054-.413-.019.174c.013-.008.073-.286.073-.272l-.137.317a2.209,2.209,0,0,1,.135-.236c.019.2-.35.382-.123.17.351-.328-.5.252-.069.038a2.071,2.071,0,0,1,.237-.127q-.522.206-.257.125c.377-.145.08.164-.164.006l.14,0c.249.015.19,0-.179-.039.3.045.6.085.9.128l2.063.295c.691.1,1.382.193,2.071.3.107.016.218.027.324.051l.137.033q.363.12-.188-.094l.12.064c.209.137.157.089-.158-.141l.1.09q.254.274-.117-.182l.073.111q.18.332-.064-.215a1.422,1.422,0,0,0,.081.257c.168.458-.036-.589-.022-.094.012.464.067-.378.062-.343-.02.15-.042.3-.063.45l-.281,2c-.083.593-.161,1.188-.25,1.781-.011.073-.02.143-.035.216l-.033.137q-.12.363.094-.186a1.71,1.71,0,0,1-.1.177c-.1.154-.039.082.178-.214l-.091.1q-.273.254.182-.115a1.272,1.272,0,0,0-.346.2l.323-.145a2.195,2.195,0,0,1-.263.065q.618-.067.226-.051a2.05,2.05,0,0,1-.283-.022,2.406,2.406,0,0,0-2.4,2.4,2.467,2.467,0,0,0,2.4,2.4,4.582,4.582,0,0,0,4.642-3.133,8.507,8.507,0,0,0,.3-1.7l.35-2.492q.042-.294.083-.588a5,5,0,0,0-.294-2.782,4.471,4.471,0,0,0-1.925-2.153,6.863,6.863,0,0,0-2.507-.653l-2.553-.365a15.389,15.389,0,0,0-2.688-.336,4.616,4.616,0,0,0-4.324,3.5c-.072.334-.1.681-.141,1.02l-.033.247s.067-.494.029-.214q-.084.62-.169,1.239c-.113.825-.234,1.649-.345,2.475A4.57,4.57,0,0,0,216.025,210c.882.189,1.807.261,2.7.388l2.818.4a2.638,2.638,0,0,0,1.849-.242,2.445,2.445,0,0,0,1.1-1.435C224.753,207.978,224.148,206.348,222.819,206.159Z"/><path class="c" d="M240.887,208.7l-4.125-.588-.9-.128c-.163-.023-.33-.039-.491-.074l-.137-.034q-.363-.12.187.095c-.011-.019-.248-.135-.235-.136l.272.214a2.249,2.249,0,0,1-.191-.187c.178.039.316.461.1.11-.3-.486.156.448.016.016-.152-.469.028.593.022.093,0-.182.095-.338-.04.195a8.161,8.161,0,0,0,.119-.842q.148-1.065.293-2.132.09-.661.178-1.323l.022-.165q.054-.412-.019.174c.013-.008.073-.286.073-.272l-.137.318a2.129,2.129,0,0,1,.135-.237c.019.2-.35.382-.123.17.351-.327-.5.252-.069.039a2.078,2.078,0,0,1,.237-.128q-.522.206-.257.126c.377-.146.08.164-.164.005l.14,0c.249.016.19,0-.179-.039.3.045.6.086.9.128l2.063.3c.691.1,1.382.193,2.071.295.107.016.218.028.324.051l.137.033q.363.121-.188-.094l.12.065q.314.2-.158-.142l.1.09q.253.274-.117-.182l.073.111q.18.331-.064-.214a1.439,1.439,0,0,0,.081.256c.168.458-.036-.589-.022-.094.012.465.067-.377.062-.343-.02.15-.042.3-.063.45l-.281,2c-.083.594-.161,1.189-.25,1.782-.011.072-.02.142-.035.215l-.033.137c-.08.243-.049.18.094-.186a1.71,1.71,0,0,1-.1.177q-.147.231.178-.214l-.091.1q-.273.253.182-.116a1.3,1.3,0,0,0-.346.2l.323-.145a2.195,2.195,0,0,1-.263.065q.618-.068.226-.05a2.417,2.417,0,0,1-.283-.022,2.4,2.4,0,0,0-2.4,2.4,2.468,2.468,0,0,0,2.4,2.4,4.584,4.584,0,0,0,4.642-3.134,8.482,8.482,0,0,0,.3-1.7l.35-2.492q.042-.294.083-.588a5,5,0,0,0-.294-2.782,4.471,4.471,0,0,0-1.925-2.153,6.863,6.863,0,0,0-2.507-.653l-2.553-.364a15.487,15.487,0,0,0-2.688-.337,4.616,4.616,0,0,0-4.324,3.5c-.072.334-.1.682-.141,1.021l-.033.246s.067-.493.029-.213q-.084.62-.169,1.238c-.113.825-.234,1.649-.345,2.475a4.57,4.57,0,0,0,3.423,5.059c.882.19,1.807.261,2.7.389l2.818.4a2.638,2.638,0,0,0,1.849-.242,2.443,2.443,0,0,0,1.1-1.434C242.821,210.517,242.216,208.888,240.887,208.7Z"/><path class="c" d="M144.564,118.828a19.3,19.3,0,0,0,9.3,2.152,15.126,15.126,0,0,0,9.378-2.765,2.414,2.414,0,0,0,0-3.394,2.463,2.463,0,0,0-3.4,0c.727-.566.159-.13-.028-.01s-.379.23-.575.333c-.1.053-.206.1-.308.153-.366.189.067.043.093-.03-.037.106-.683.253-.794.289a13.952,13.952,0,0,1-2.221.507c.353-.052-.076,0-.216.019-.218.021-.436.04-.654.054-.526.034-1.052.047-1.579.044-.472,0-.943-.019-1.413-.051-.216-.015-.432-.032-.648-.054-.021,0-.8-.11-.317-.034a15.978,15.978,0,0,1-2.075-.461c-.29-.087-.574-.191-.86-.289-.615-.21.348.18-.207-.081q-.534-.252-1.055-.526a2.45,2.45,0,0,0-3.283.861,2.426,2.426,0,0,0,.861,3.283Z"/><path class="c" d="M152.648,96.918a43.734,43.734,0,0,1,1.028,4.7l-.086-.638a2.876,2.876,0,0,1,.017.649l.086-.638a1.555,1.555,0,0,1-.071.292l.242-.574a1.225,1.225,0,0,1-.1.188l.375-.486a.963.963,0,0,1-.154.152l.486-.376a3.081,3.081,0,0,1-.372.2l.573-.242a2.742,2.742,0,0,1-.628.183l.638-.086a2.523,2.523,0,0,1-.589,0l.638.086c-.222-.031-.44-.085-.662-.115a1.812,1.812,0,0,0-.957-.043,1.774,1.774,0,0,0-.892.285,2.4,2.4,0,0,0-.861,3.283,2.3,2.3,0,0,0,1.434,1.1c.5.068.994.2,1.508.219a4.8,4.8,0,0,0,2.22-.528,3.2,3.2,0,0,0,1.777-2.111,5.311,5.311,0,0,0-.023-2.276c-.256-1.515-.606-3.016-1-4.5a2.4,2.4,0,0,0-4.628,1.276Z"/><path class="c" d="M127.778,83.607c-.785,2.551-.273,8.421,4.561,8.92,6.388-.038,6.728-7.134,4.578-10.471C135.156,79.325,129.978,78.188,127.778,83.607Z"/><path class="c" d="M178.938,83.607c.786,2.551.274,8.421-4.56,8.92-6.388-.038-6.728-7.134-4.578-10.471C171.561,79.325,176.738,78.189,178.938,83.607Z"/></svg>